<svg xmlns="http://www.w3.org/2000/svg" width="54.982" height="48" viewBox="0 0 54.982 48"><g transform="translate(626.139 679.897)"><g transform="translate(-626.139 -660.043)"><path d="M-575.309-626.452h-46.677a4.149,4.149,0,0,1-4.152-4.146,4.149,4.149,0,0,1,4.152-4.145h46.677a4.149,4.149,0,0,1,4.152,4.145A4.149,4.149,0,0,1-575.309-626.452Z" transform="translate(626.139 634.743)" fill="#003964"/></g><g transform="translate(-626.139 -640.188)"><path d="M-575.309-581.3h-46.677a4.149,4.149,0,0,1-4.152-4.145,4.149,4.149,0,0,1,4.152-4.145h46.677a4.149,4.149,0,0,1,4.152,4.145A4.149,4.149,0,0,1-575.309-581.3Z" transform="translate(626.139 589.588)" fill="#003964"/></g><g transform="translate(-626.139 -679.897)"><path d="M-575.309-671.606h-46.677a4.149,4.149,0,0,1-4.152-4.145,4.149,4.149,0,0,1,4.152-4.145h46.677a4.149,4.149,0,0,1,4.152,4.145A4.149,4.149,0,0,1-575.309-671.606Z" transform="translate(626.139 679.897)" fill="#003964"/></g></g></svg>