<svg xmlns="http://www.w3.org/2000/svg" width="512" height="512" viewBox="0 0 512 512"><path d="M495.239,691.764c-78.563-78.554-206.384-78.554-284.937,0s-78.563,206.387,0,284.941c67.192,67.2,170.35,76.72,247.971,28.952L586.8,1134.187a36.646,36.646,0,0,0,51.682,0l14.235-14.235a36.649,36.649,0,0,0,0-51.683L524.189,939.739C571.947,862.117,562.431,758.968,495.239,691.764ZM439.063,920.54a122.045,122.045,0,1,1,0-172.6A122.171,122.171,0,0,1,439.063,920.54Z" transform="translate(-151.379 -632.849)" fill="#fff"/></svg>