<svg xmlns="http://www.w3.org/2000/svg" viewBox="0 0 446.95 275.7"><defs><style>.cls-1{fill:#fff;}</style></defs><g id="Layer_2" data-name="Layer 2"><g id="Layer_1-2" data-name="Layer 1"><path class="cls-1" d="M214.87,180.49h-.59v11.83h.63c1.26,0,2.11-1.26,2.11-6.1C217,181.71,216.26,180.49,214.87,180.49Z"/><path class="cls-1" d="M113,119.51c-2.53,0-11.24,8-17.68,18.31-3.79,5.93-5.93,12.63-5.93,16.67,0,2.27.5,3.78,1.77,3.78,4.16,0,10-7.7,16.16-18.3,4.92-8.59,7.19-14.78,7.19-18.06C114.48,120.4,114.23,119.51,113,119.51Z"/><path class="cls-1" d="M199.84,147.79c1.52,5.94,4.17,10.36,6.95,10.36s3.78-6.31,3.78-14.52c0-4-.12-8.08-.37-11.49C207.17,136.94,203.63,142.37,199.84,147.79Z"/><path class="cls-1" d="M116.38,180.49h-.59v11.83h.63c1.26,0,2.11-1.26,2.11-6.1C118.53,181.71,117.77,180.49,116.38,180.49Z"/><path class="cls-1" d="M233.73,180.49h-.59v11.83h.63c1.26,0,2.1-1.26,2.1-6.1C235.87,181.71,235.11,180.49,233.73,180.49Z"/><path class="cls-1" d="M86,95.65c-.51-1.64-2.4-2.52-4-2.52-2.9,0-7.57,1.64-11.86,3.15-2,.76-3,1.14-4.8,1.64-.13,3.16-1.9,8.21-4.8,13.51-1.14,1.9-2.4,4.17-9.6,16.79C76,122.54,88.22,104.11,86,95.65Z"/><path class="cls-1" d="M223.48,0C100.05,0,0,61.72,0,137.85S100.05,275.7,223.48,275.7,447,214,447,137.85,346.9,0,223.48,0Zm21.4,50.39c2.24-2,4.67-1.64,6.47.81a9.38,9.38,0,0,1,.84,1.34,15.31,15.31,0,0,1,1.69,7.09,10.92,10.92,0,0,1-5.47,9.83,6.13,6.13,0,0,1-9.35-3.15,8.29,8.29,0,0,1-.55-4.05A19.23,19.23,0,0,1,244.88,50.39Zm-18.1-14.56a10.4,10.4,0,0,1,.93-2.07A3.8,3.8,0,0,1,232.66,32a11.19,11.19,0,0,1,4.16,2.71c2.64,2.59,4.7,5.56,5.23,9.29a11.5,11.5,0,0,1-2.91,9.76c-3.13,3.42-7.82,3.22-10.77-.38a12.49,12.49,0,0,1-2.71-7.62c0-.66,0-1.31,0-2A30.1,30.1,0,0,1,226.78,35.83Zm-21.21,5.69a17.16,17.16,0,0,1,7.1-8.76,8.62,8.62,0,0,1,2-.85,3.68,3.68,0,0,1,4.53,1.7,11.73,11.73,0,0,1,1.62,4.83c.26,1.78.38,3.57.57,5.36a14.94,14.94,0,0,1-1.8,8.19,8.55,8.55,0,0,1-4,3.68,6.68,6.68,0,0,1-7.84-2A11.63,11.63,0,0,1,205.57,41.52Zm-10.18,10a8.11,8.11,0,0,1,1.11-1.3,3.59,3.59,0,0,1,4.49-.58,8.49,8.49,0,0,1,2,1.54A22.09,22.09,0,0,1,208,60a9.46,9.46,0,0,1-.42,7A5.91,5.91,0,0,1,199.75,70a10.6,10.6,0,0,1-6.48-8.13,16.51,16.51,0,0,1-.2-2A15,15,0,0,1,195.39,51.52ZM45.92,137.69c-3.41,6.57-7.45,14.65-11.49,24.37-1,2.28-2,2.28-3.79.51a9.3,9.3,0,0,1-2.4-6.69,24.55,24.55,0,0,1,.89-6.32C32.28,138.7,43.65,116,54.51,98.81c-4-.89-6.19-3-7.33-5.56-.88-1.89-.38-3,2.4-3.28,4.8-.38,9.6-2,14.27-3.66a47.08,47.08,0,0,1,13.76-3c7-.26,13.13,1.51,16.16,10.73,2.91,8.84.51,15.15-3.91,21.84-6.31,9.85-19.7,20.2-35.48,22.35C50.59,138.7,47.94,138.45,45.92,137.69Zm71.13,59.09h-1.26v11.58h-5.6V176h6.65c4.8,0,7.16,2.57,7.16,10.23C124,194.34,121,196.78,117.05,196.78Zm23.36,11.58H129.05V176h11.32v4.46h-5.72v9h4.75V194h-4.75v9.9h5.76Zm18.86-27.87h-4.42v27.95h-5.6V180.49h-4.38V176h14.4Zm25,21c0,5.17-2.69,7.4-6.77,7.4-4.34,0-6.07-2.65-6.07-7.32a32.25,32.25,0,0,1,.34-4.55l4.21.51a26.93,26.93,0,0,0-.29,3.58c0,2.73.46,3.45,1.47,3.45s1.43-.72,1.43-2.7V201c0-2.4-.67-4.59-3.41-7.91s-3.83-5.94-3.83-9.64v-.51c0-4.21,1.64-7.41,6.44-7.41,4.59,0,6,2.91,6,7.33a29.16,29.16,0,0,1-.29,4l-4.26-.51a17.7,17.7,0,0,0,.21-3c0-2.82-.42-3.49-1.3-3.49s-1.22.63-1.22,2.52V183c0,1.85.71,3.74,2.69,6.27,2.78,3.58,4.63,7.45,4.63,11.57Zm-24.87-37.38c-5.05-.12-8.21-3.66-9.09-7.83-3.54,3.79-8.59,7.2-14,7.2a7.7,7.7,0,0,1-7.85-5.38c-3.85,3.65-8.81,6.27-13.62,6.27-6.31,0-10-3.29-11-8-3.66,3.54-9.35,7.45-14.4,7.45C82,163.83,78,158.4,78,151c0-5.43,2.28-12.5,6.82-18.81,10.1-14.52,20.46-20.45,26.89-20.45,4.55,0,7.33,2.27,8.46,5.55l2.4-3.91c1.52-2.53,3.66-2.66,5.18-.89,2.15,2.53,3.28,8.08,0,14.65-3.28,6.94-13.89,20.7-13.89,29.16,0,1.9.51,3,1.77,3,4.08,0,9.59-6.94,13.69-14.3,0-.08.05-.15.08-.22a172,172,0,0,1,17.29-31.7c1.52-2,3.54-2.27,4.8-.5,1,1.39,2.53,4.29,2.53,6.44,0,3-1.52,6.82-4.42,11.49a142.57,142.57,0,0,0-10,18.56A20.32,20.32,0,0,0,138.1,156c0,1.52.12,2.4,1.13,2.4,3.29,0,7.45-6.69,12.88-15.66,5.68-9.34,8.21-14.26,10.61-18.56a77.34,77.34,0,0,1,6.82-11.11c1.64-2.14,3.41-2.27,4.79-.88,3.41,3.66,3.41,8.71.38,14.9-2,4.17-7.45,11.74-12,21.46a18.35,18.35,0,0,0-2.27,7.45c0,1.77.5,2.78,1.64,2.78,3.66,0,10.48-7.83,17-19.07,2.4-22.47,12.75-28.15,15-28.15s3.15,2.15,2.65,5.18c-.76,4.67-2.91,10.22-10.86,23.61C177.36,154.61,168.27,164.34,159.44,164.08Zm43.6,38c0,4.5-2.77,6.77-6.9,6.77s-6.86-2.27-6.86-6.73V176h5.55v26.65c0,1.22.64,1.85,1.61,1.85s1.26-.63,1.26-1.9V176H203Zm12.5-5.31h-1.26v11.58h-5.6V176h6.65c4.8,0,7.16,2.57,7.16,10.23C222.49,194.34,219.5,196.78,215.54,196.78Zm-4.46-32.7c-7.58.26-15.15-1.77-19.44-9.72a17,17,0,0,1-2.15-8.33,12.77,12.77,0,0,1,4-9.85c2.53-2.15,4.42-1.52,4.8,1.51,4.16-5.93,8.58-12.5,11.87-17.92.5-4.55,2-7.45,4.92-9.85a9.79,9.79,0,0,1,6.19-2.65c3.41,0,4.16,2.77.25,9.21-.13,1.52-.25,3.66-.25,5.31,0,9,1.64,17.17,1.39,24a24.14,24.14,0,0,1-2.15,9.46,27.32,27.32,0,0,0,11-13.88c1.14-2.91,3-2,3.92,0,.63,1.26,1,4.79-1.26,8.71A27,27,0,0,1,211.08,164.08Zm23.32,32.7h-1.26v11.58h-5.6V176h6.65c4.8,0,7.16,2.57,7.16,10.23C241.35,194.34,238.36,196.78,234.4,196.78Zm4.53-109.11a15.67,15.67,0,0,1-11.64.34,11.8,11.8,0,0,0-7.63,0,15.86,15.86,0,0,1-11.35-.22,9.19,9.19,0,0,1-5.82-6.35,10,10,0,0,1,1.7-8.19,19.08,19.08,0,0,1,3.82-4,26.64,26.64,0,0,0,5.54-6.65,11.5,11.5,0,0,1,20.23.7A16.36,16.36,0,0,0,239,69.4a13.32,13.32,0,0,1,5.53,7.72c.07.31.14.62.18.93s.05.81.07,1.21C244.62,83.32,242.52,86.05,238.93,87.67Zm18.83,120.77H246.39V176H252v27.83h5.77Zm11.32-12.58v12.58h-5.6V195.81L258.77,176h5.89l1.85,12.25,2-12.25h5.27Zm31.23,13c-4.17,0-6.78-2.1-6.78-6.86V182.51c0-4.67,2.61-7,6.7-7,3.7,0,6.4,1.31,6.4,7.12a32.89,32.89,0,0,1-.34,4.42l-4.25-.34a23.73,23.73,0,0,0,.29-3.45c0-3-.71-3.45-1.72-3.45s-1.48.42-1.48,2.06v20.63c0,1.47.38,2.14,1.64,2.14.93,0,1.56-.63,1.56-3.7a26.29,26.29,0,0,0-.29-3.45l4.29-.34a29.48,29.48,0,0,1,.34,4.46C306.67,207.52,304,208.86,300.31,208.86ZM300,158a28,28,0,0,1-16.29,5.18,22.68,22.68,0,0,1-11.11-2.65c-5.93-3.16-11.11-11.11-11.36-21.47-.51-25.5,22.09-48.35,36.36-54.79a28.76,28.76,0,0,1,10-2.15,12.8,12.8,0,0,1,8.21,2.65c4.29,3.79,7.58,8.71,7.58,13.64a16.39,16.39,0,0,1-1.77,7.32,86.62,86.62,0,0,0-4.8,11.36c-.63,2.15-2.4,3.41-4.92,1.9a9.35,9.35,0,0,1-4.3-8.08,15.81,15.81,0,0,1,.76-4.67,53.81,53.81,0,0,1,2.15-5.81c1.77-4.42,3.28-8.46,1.77-10.1-3-3.29-21,7.7-31.44,24.62a53.72,53.72,0,0,0-8,26.89c0,10.86,4.8,15.66,9.35,15.66,6.94,0,15.9-8.08,23.23-22.1.88-1.77,3.79-2.52,5.05.38a10.33,10.33,0,0,1,.88,4.17C311.33,147.29,304.51,154.61,300,158Zm25.51,43.69c0,5.3-3.16,7.15-6.9,7.15s-7.07-2-7.07-7.15V182.64c0-5.26,3.28-7.16,7.07-7.16s6.9,1.85,6.9,7.16Zm11.28,6.65H331.5v-5.18h5.26Zm56.14-42c-6.94,16.67-15.53,36.87-26.51,41-2.91,1.14-5.56,1.14-8.59-2.9-1.89-2.66-3.79-6.44-3.79-10.48a20,20,0,0,1,1.14-5.94c3.91-10.86,14.14-18.56,26.39-23.48l1.89-4.42a16.81,16.81,0,0,1-10.35,3.53,8.26,8.26,0,0,1-8.09-5c-3.56,2.91-8,5.3-13,5.3a12.2,12.2,0,0,1-11.45-8.18C336.13,160.83,329.68,164,324,164c-7.7,0-11.11-4.42-11.11-10.74a28.57,28.57,0,0,1,1.52-8.33c3.15-8.84,11.23-23.48,15.9-30,1.9-2.52,3.41-2.78,5.06-.88,2.39,2.52,3.4,8,.12,14.26-2.4,5.43-8.21,14.9-10.35,19.95a22.16,22.16,0,0,0-1.77,7.58c0,2,.51,3.16,1.89,3.16,5,0,11.62-8.46,15.53-17a3.61,3.61,0,0,1,.72-1.08c.18-.48.33-.94.55-1.44a262.15,262.15,0,0,1,12.37-25.26c-3.91-.5-6.19-1.89-7.2-3.41a8.07,8.07,0,0,1-.41-.73c-.63,2.38-2.31,4.14-4.76,4.14-4,0-7.45-3.78-7.45-7.7,0-3.53,2.65-6.82,5.55-6.82,3.42,0,6.69,4.24,6.91,7.83a4.24,4.24,0,0,1,2.56-.5,71.88,71.88,0,0,0,9.09-.26c3.92-6.81,6.57-11,9.47-15.15,1.9-2.77,3.41-2.65,4.8-.25a11.43,11.43,0,0,1,1.39,5.18,22.34,22.34,0,0,1-2,8.71c3.91.5,6.06,2.53,6.94,4,1.27,2.27.38,3.79-2.65,3.41a38.27,38.27,0,0,0-8.33.38c-4.8,8.2-12,20.7-16.41,30.3a23.89,23.89,0,0,0-2.28,9.47c0,3.79,1.27,6.44,3.41,6.44,3.4,0,7.59-3.8,11.31-9.28a27.52,27.52,0,0,1,1.32-5.11,139.47,139.47,0,0,1,16.92-31.44c1.64-2.15,3.53-2.28,4.92-.26a11.44,11.44,0,0,1,2.4,6.06c0,3.16-1.51,6.82-4.42,11.49a107.53,107.53,0,0,0-9.34,17.93c-1.77,4.55-2.91,9.6.38,9.6s9-7.45,15.15-17.93c8.46-14.27,11.87-22,14.9-26.51,1.76-2.28,3.41-2.53,4.79-1.14,1.9,1.89,2.4,3.79,2.4,6.44a18.16,18.16,0,0,1-2.27,8.46c-3.66,7.07-10.23,19.31-15.4,31.31A64.3,64.3,0,0,0,414.37,142c1.64-2.28,3.53-2.53,4-.89.63,2,.37,5.31-1.77,8.59C411.59,157.39,403.25,162.06,392.9,166.35Z"/><path class="cls-1" d="M365.25,187.31c-3.16,5.94-4,11.12-2.78,12.25.89.76,3.54-2.9,7.07-9.09,2.65-4.67,5.68-10.86,8.71-17.68A42,42,0,0,0,365.25,187.31Z"/><path class="cls-1" d="M318.54,179.78c-.85,0-1.44.5-1.44,1.76v21.22c0,1.22.55,1.77,1.48,1.77s1.35-.51,1.35-1.73V181.54C319.93,180.28,319.21,179.78,318.54,179.78Z"/></g></g></svg>